PathFileType	4	(X/Y/Z)	TVC_39_BWA_06_walk_RCNL2025.trc
DataRate	CameraRate	NumFrames	NumMarkers	Units	OrigDataRate	OrigDataStartFrame	OrigNumFrames
100	100	9	27	mm	100	839	1118
Frame#	Time	R_Shoulder			L_Shoulder			C7			J_Notch			R_Elbow			L_Elbow			R_Wrist			L_Wrist			R_Asis			L_Asis			R_Psis			L_Psis			Sacral			Thoracic			Sternum			R_Thigh_Lateral			R_Knee_Lateral			R_Shank_Lateral			R_Ankle_Lateral			R_Heel			R_Toe			L_Thigh_Lateral			L_Knee_Lateral			L_Shank_Lateral			L_Ankle_Lateral			L_Heel			L_Toe		
		X1	Y1	Z1	X2	Y2	Z2	X3	Y3	Z3	X4	Y4	Z4	X5	Y5	Z5	X6	Y6	Z6	X7	Y7	Z7	X8	Y8	Z8	X9	Y9	Z9	X10	Y10	Z10	X11	Y11	Z11	X12	Y12	Z12	X13	Y13	Z13	X14	Y14	Z14	X15	Y15	Z15	X16	Y16	Z16	X17	Y17	Z17	X18	Y18	Z18	X19	Y19	Z19	X20	Y20	Z20	X21	Y21	Z21	X22	Y22	Z22	X23	Y23	Z23	X24	Y24	Z24	X25	Y25	Z25	X26	Y26	Z26	X27	Y27	Z27
839	8.38000000	418.091003	1491.733154	317.563141	470.328857	1486.028687	-45.565132	408.855377	1551.730591	128.158112	557.341919	1427.085938	147.153580	434.962982	1179.610718	449.840515	403.561615	1174.087769	-155.672989	543.670471	948.392517	420.164810	469.925049	921.051208	-141.347591	474.022888	967.697388	317.875214	532.013062	933.291748	29.115152	296.775177	975.147705	189.097504	316.814209	962.951538	85.100876	306.794693	969.049622	137.099190	317.376678	1225.223511	116.314079	598.285095	1266.510254	171.140274	451.439178	776.512085	410.630707	492.397614	508.813934	378.826385	418.146881	336.111115	444.461945	415.536194	102.618919	371.042175	380.754822	86.082481	313.808716	555.060608	54.447166	393.059967	478.724457	681.791382	-37.713646	477.325226	463.574066	57.389221	425.931976	326.028046	2.673902	366.659637	72.716812	102.664719	316.336334	61.218906	157.024765	507.040985	41.649601	108.650513
840	8.39000000	419.561218	1491.750366	317.408905	471.474792	1485.688477	-45.823528	410.173981	1551.612427	127.905983	558.707336	1427.004028	146.905746	436.005585	1179.639160	449.742493	404.033081	1173.582642	-155.202042	544.099274	948.011932	420.806335	469.789459	920.424072	-140.235909	475.092926	967.455566	317.976257	533.509705	933.205139	29.274012	297.996826	975.074219	188.894272	318.220703	962.917297	84.905411	308.108765	968.995758	136.899841	318.776825	1225.112915	116.288834	599.656250	1266.409058	171.069962	451.701996	776.315247	410.765106	494.336121	508.832458	377.836639	423.736816	334.743439	443.600403	426.552765	101.105049	370.340332	391.971680	84.020836	313.158203	567.107361	55.273514	391.685120	480.124695	681.778931	-37.658234	477.679657	463.507690	57.321598	426.085083	325.965698	2.610252	366.702820	72.715141	102.609032	316.337555	61.201271	156.998001	507.028748	41.648426	108.640984
841	8.40000000	421.031189	1491.766724	317.314026	472.684692	1485.339355	-46.014637	411.514893	1551.493652	127.708984	560.085632	1426.905151	146.732620	437.009674	1179.680054	449.741699	404.546661	1173.069946	-154.647751	544.543854	947.682220	421.489441	469.562927	919.759247	-139.008827	476.168213	967.175598	318.097321	534.972351	933.122986	29.433502	299.219604	974.996277	188.728943	319.607941	962.893860	84.742165	309.413773	968.945068	136.735554	320.174683	1225.006470	116.312874	601.024475	1266.287720	171.064377	451.963593	776.073181	410.909851	496.332642	508.835632	376.806305	429.463013	333.410522	442.702087	437.544586	99.776070	369.555054	403.163391	82.187515	312.419983	579.075806	56.208469	390.138672	481.437866	681.743652	-37.593037	478.027710	463.438293	57.240826	426.246796	325.906036	2.531701	366.731628	72.704834	102.561043	316.377380	61.175335	156.939423	507.020081	41.651001	108.623817
842	8.41000000	422.501770	1491.778809	317.279846	473.956604	1484.983765	-46.138256	412.876740	1551.373047	127.569298	561.475891	1426.788208	146.633392	437.980713	1179.728516	449.836182	405.109100	1172.552368	-154.015610	545.008209	947.397888	422.210938	469.263458	919.061890	-137.677296	477.257111	966.859924	318.236481	536.398010	933.044922	29.589773	300.446899	974.910278	188.607452	320.974152	962.877075	84.617249	310.710526	968.893677	136.612350	321.568756	1224.902954	116.388168	602.389648	1266.145020	171.119476	452.250763	775.783386	411.060730	498.401550	508.824463	375.736420	435.298889	332.123993	441.764038	448.461761	98.629936	368.691498	414.282288	80.575783	311.595764	590.917114	57.246117	388.449463	482.675293	681.687622	-37.525570	478.378998	463.363708	57.152985	426.430359	325.848389	2.442534	366.744324	72.684967	102.525146	316.450867	61.145866	156.854797	507.014709	41.655376	108.601860
843	8.42000000	423.973938	1491.782715	317.307861	475.287140	1484.623657	-46.194195	414.257721	1551.248535	127.489441	562.876831	1426.652222	146.606995	438.925171	1179.779541	450.022919	405.725769	1172.032715	-153.311523	545.496216	947.151855	422.967621	468.910339	918.337952	-136.253262	478.368347	966.510742	318.391693	537.784668	932.971069	29.739098	301.682190	974.812561	188.535645	322.318176	962.862610	84.536591	312.000183	968.837585	136.536118	322.957672	1224.800537	116.516991	603.751526	1265.980347	171.231033	452.592987	775.444214	411.213226	500.557404	508.799988	374.630798	441.207092	330.896545	440.782715	459.250427	97.662033	367.755554	425.275848	79.177559	310.688904	602.577515	58.375008	386.648621	483.854248	681.616150	-37.466805	478.741882	463.282532	57.063820	426.646851	325.792847	2.346921	366.740570	72.655502	102.504707	316.549530	61.118088	156.753433	507.012238	41.659767	108.577690
844	8.43000000	425.448700	1491.774414	317.399689	476.671539	1484.261475	-46.182278	415.655457	1551.118164	127.472221	564.286804	1426.496216	146.652054	439.850342	1179.827026	450.297821	406.400726	1171.513794	-152.541763	546.011414	946.935638	423.756287	468.523788	917.593750	-134.749340	479.510956	966.129639	318.560944	539.131409	932.901855	29.877916	302.929169	974.699158	188.519119	323.639465	962.845947	84.505905	313.284317	968.772552	136.512512	324.339935	1224.697388	116.701935	605.110046	1265.792969	171.394669	453.021790	775.054932	411.363129	502.814331	508.763031	373.495911	447.142914	329.740448	439.754883	469.854065	96.864838	366.753387	436.087097	77.983459	309.704163	613.999084	59.577610	384.767303	484.994385	681.535828	-37.428913	479.122711	463.194122	56.978451	426.903625	325.739746	2.249313	366.721527	72.617371	102.501526	316.662842	61.097034	156.646210	507.012390	41.662735	108.553490
845	8.44000000	426.927155	1491.749512	317.557190	478.103699	1483.899170	-46.102295	417.067230	1550.979736	127.520668	565.704102	1426.319702	146.767044	440.764343	1179.864136	450.656158	407.136566	1170.998291	-151.712769	546.557220	946.739716	424.573776	468.124680	916.835999	-133.178585	480.694031	965.717896	318.742310	540.438538	932.838013	30.002888	304.191528	974.565857	188.563248	324.938293	962.822510	84.530525	314.564911	968.694183	136.546886	325.714233	1224.590820	116.945938	606.465088	1265.582520	171.605957	453.569733	774.616089	411.506989	505.185394	508.713989	372.340607	453.058105	328.665680	438.678986	480.214661	96.227852	365.691132	446.655884	76.982864	308.647339	625.121582	60.830151	382.834351	486.113464	681.452271	-37.422585	479.525452	463.098450	56.901085	427.203308	325.689545	2.154679	366.690155	72.572540	102.515381	316.779785	61.086704	156.543594	507.014954	41.663448	108.530960
846	8.45000000	428.410492	1491.703857	317.782257	479.576263	1483.538818	-45.953979	418.489899	1550.830933	127.637985	567.126648	1426.121948	146.950241	441.675720	1179.883911	451.092621	407.934448	1170.488770	-150.831070	547.136719	946.553619	425.416885	467.734055	916.071564	-131.554222	481.926819	965.276306	318.933838	541.707214	932.780579	30.110918	305.473267	974.408569	188.673035	326.215698	962.787903	84.615379	315.844482	968.598236	136.644207	327.079407	1224.478394	117.252174	607.816772	1265.348755	171.860535	454.269287	774.129639	411.642303	507.682129	508.652710	371.175812	458.905365	327.678741	437.555939	490.274078	95.737617	364.574280	456.920258	76.164009	307.524628	635.883911	62.102894	380.874390	487.224152	681.369385	-37.454765	479.951477	462.996094	56.834827	427.543213	325.642426	2.068332	366.651123	72.523918	102.544029	316.890991	61.089394	156.454010	507.019684	41.661770	108.511276
847	8.46000000	429.899872	1491.632812	318.076843	481.080780	1483.182251	-45.736984	419.920105	1550.669556	127.827492	568.552307	1425.902954	147.199875	442.593506	1179.878784	451.601440	408.794281	1169.987671	-149.903168	547.752899	946.366394	426.282471	467.372833	915.307220	-129.889324	483.218414	964.805115	319.133789	542.940063	932.730530	30.199184	306.778381	974.223206	188.852966	327.473602	962.737793	84.764862	317.125992	968.480499	136.808914	328.434540	1224.356934	117.624031	609.165283	1265.092041	172.154099	455.151550	773.599182	411.767822	510.313660	508.578186	370.013733	464.642029	326.781891	436.389801	499.975433	95.377876	363.407990	466.818298	75.514046	306.342163	646.226257	63.360832	378.906555	488.332306	681.289612	-37.527561	480.399689	462.888031	56.781502	427.916229	325.598328	1.995317	366.610107	72.475121	102.583733	316.989746	61.105419	156.382874	507.026428	41.658257	108.495155
